<svg xmlns="http://www.w3.org/2000/svg" width="24" height="24" viewBox="0 0 24 24" fill="none">
  <path d="M12 3.75C9.37665 3.75 7.25 5.87665 7.25 8.5V10.6309C7.25 11.2828 7.0394 11.9172 6.64972 12.4398L5.21753 14.3606C4.94987 14.7196 4.90708 15.2008 5.10697 15.6015C5.30686 16.0021 5.71627 16.25 6.16406 16.25H17.8359C18.2837 16.25 18.6931 16.0021 18.893 15.6015C19.0929 15.2008 19.0501 14.7196 18.7825 14.3606L17.3503 12.4398C16.9606 11.9172 16.75 11.2828 16.75 10.6309V8.5C16.75 5.87665 14.6234 3.75 12 3.75Z" fill="#7aa2f7"/>
  <path d="M9.75 17.5C9.75 18.7426 10.7574 19.75 12 19.75C13.2426 19.75 14.25 18.7426 14.25 17.5H9.75Z" fill="#7aa2f7"/>
</svg>
