<svg xmlns="http://www.w3.org/2000/svg" width="24" height="24" viewBox="0 0 24 24" fill="none">
  <path d="M12 2.75C12.4142 2.75 12.75 3.08579 12.75 3.5V11.5C12.75 11.9142 12.4142 12.25 12 12.25C11.5858 12.25 11.25 11.9142 11.25 11.5V3.5C11.25 3.08579 11.5858 2.75 12 2.75Z" fill="#e0e0e0"/>
  <path d="M6.6967 6.23964C7.00961 5.96803 7.48332 6.00136 7.75493 6.31427C8.02654 6.62718 7.99321 7.10089 7.6803 7.3725C6.40272 8.48146 5.75 10.0191 5.75 11.6562C5.75 14.9532 8.39163 17.625 11.6562 17.625C14.9209 17.625 17.5625 14.9532 17.5625 11.6562C17.5625 10.0191 16.9098 8.48146 15.6322 7.3725C15.3193 7.10089 15.286 6.62718 15.5576 6.31427C15.8292 6.00136 16.3029 5.96803 16.6158 6.23964C18.2222 7.63438 19.0625 9.58845 19.0625 11.6562C19.0625 15.7589 15.771 19.125 11.6562 19.125C7.54153 19.125 4.25 15.7589 4.25 11.6562C4.25 9.58845 5.09029 7.63438 6.6967 6.23964Z" fill="#e0e0e0"/>
</svg>
